# Blender v2.80 (sub 75) OBJ File: 'desk.blend'
# www.blender.org
mtllib desk.mtl
o desk_Cube.001
v -2.480185 0.002200 1.199809
v -2.480185 2.251313 1.199809
v -2.480185 0.002200 -1.000000
v -2.480185 2.251313 -1.000000
v 2.480184 0.002200 1.199809
v 2.480184 2.251313 1.199809
v 2.480184 0.002200 -1.000000
v 2.480184 2.251313 -1.000000
v -1.383379 1.965737 1.199809
v 1.382698 0.002200 1.199809
v -1.382698 0.002200 1.199809
v -1.384061 2.251313 1.199809
v 1.384060 2.251313 1.199809
v 1.383379 1.965737 1.199809
v -1.384156 0.002200 -1.000000
v 1.384156 0.002200 -1.000000
v -1.384815 1.679947 -1.000000
v 1.385472 2.251313 -1.000000
v -1.385472 2.251313 -1.000000
v 1.384814 1.679947 -1.000000
v -1.383427 0.002200 -0.697561
v 1.383427 0.002200 -0.697561
v -1.384097 1.964856 -0.697561
v 1.384097 1.964856 -0.697561
vt 0.581930 0.196934
vt 0.389432 0.000122
vt 0.581930 0.000122
vt 0.339434 0.535147
vt 0.389432 0.630999
vt 0.192620 0.630999
vt 0.581930 0.827811
vt 0.389432 0.827811
vt 0.606920 0.292912
vt 0.778742 0.196934
vt 0.581930 0.292853
vt 0.581930 0.535081
vt 0.389432 0.292729
vt 0.606920 0.535021
vt 0.581930 0.630999
vt 0.192620 0.196934
vt 0.192620 0.292844
vt 0.166155 0.292908
vt 0.000122 0.630999
vt 0.000122 0.534962
vt 0.166155 0.535025
vt 0.389432 0.196934
vt 0.339434 0.292786
vt 0.192620 0.535089
vt 0.944697 0.535025
vt 0.772952 0.292849
vt 0.944697 0.292908
vt 0.166154 0.828132
vt 0.000122 0.999878
vt 0.000122 0.828056
vt 0.332431 0.999878
vt 0.166399 0.828133
vt 0.332431 0.828056
vt 0.389432 0.535204
vt 0.778742 0.292972
vt 0.778742 0.534962
vt 0.778742 0.630999
vt 0.000122 0.292972
vt 0.000122 0.196934
vt 0.772952 0.535084
vt 0.166154 0.999878
vt 0.166399 0.999878
vn -1.0000 0.0000 0.0000
vn 0.0000 0.0000 -1.0000
vn 1.0000 0.0000 0.0000
vn 0.0000 0.0000 1.0000
vn 0.0000 1.0000 0.0000
vn 0.0000 -1.0000 -0.0000
vn -1.0000 0.0003 -0.0004
vn 1.0000 0.0003 -0.0004
vn 0.0000 -1.0000 0.0005
usemtl Material.001
s off
f 2/1/1 3/2/1 1/3/1
f 20/4/2 8/5/2 7/6/2
f 8/5/3 5/7/3 7/8/3
f 9/9/4 2/1/4 1/10/4
f 12/11/5 13/12/5 19/13/5
f 13/12/4 9/9/4 14/14/4
f 6/15/4 13/12/4 14/14/4
f 3/16/6 15/17/6 21/18/6
f 5/19/6 10/20/6 22/21/6
f 4/22/2 19/13/2 17/23/2
f 19/13/2 20/4/2 17/23/2
f 17/23/2 16/24/2 15/17/2
f 22/25/4 23/26/4 21/27/4
f 22/21/6 15/17/6 16/24/6
f 24/28/7 10/29/7 14/30/7
f 11/31/8 23/32/8 9/33/8
f 23/26/9 14/14/9 9/9/9
f 2/1/1 4/22/1 3/2/1
f 7/6/2 16/24/2 20/4/2
f 20/4/2 18/34/2 8/5/2
f 8/5/3 6/15/3 5/7/3
f 1/10/4 11/35/4 9/9/4
f 9/9/4 12/11/4 2/1/4
f 6/15/5 8/5/5 18/34/5
f 19/13/5 4/22/5 2/1/5
f 6/15/5 18/34/5 13/12/5
f 18/34/5 19/13/5 13/12/5
f 2/1/5 12/11/5 19/13/5
f 13/12/4 12/11/4 9/9/4
f 10/36/4 5/37/4 14/14/4
f 5/37/4 6/15/4 14/14/4
f 11/38/6 1/39/6 21/18/6
f 1/39/6 3/16/6 21/18/6
f 16/24/6 7/6/6 22/21/6
f 7/6/6 5/19/6 22/21/6
f 15/17/2 3/16/2 17/23/2
f 3/16/2 4/22/2 17/23/2
f 19/13/2 18/34/2 20/4/2
f 17/23/2 20/4/2 16/24/2
f 22/25/4 24/40/4 23/26/4
f 22/21/6 21/18/6 15/17/6
f 24/28/7 22/41/7 10/29/7
f 11/31/8 21/42/8 23/32/8
f 23/26/9 24/40/9 14/14/9
