# Blender v2.80 (sub 75) OBJ File: 'lamp_standing.blend'
# www.blender.org
mtllib lamp_standing.mtl
o lamp_standing_Cylinder.001
v -0.051736 1.141532 -0.031036
v -0.051736 3.948516 -0.031036
v 0.001010 1.141532 -0.060322
v 0.001010 3.948516 -0.060322
v 0.052746 1.141532 -0.029286
v 0.052746 3.948516 -0.029286
v 0.051735 1.141532 0.031037
v 0.051735 3.948516 0.031037
v -0.001011 1.141532 0.060323
v -0.001011 3.948516 0.060323
v -0.052747 1.141532 0.029287
v -0.052747 3.948516 0.029287
v -0.700896 3.955291 -0.425975
v -0.317495 3.955291 -0.759734
v 0.188862 3.955291 -0.804392
v 0.624763 3.955291 -0.542893
v 0.823709 3.955291 -0.075119
v 0.709709 3.955291 0.420255
v 0.326308 3.955291 0.754014
v -0.258550 5.213155 -0.160608
v -0.180049 3.955291 0.798673
v -0.615951 3.955291 0.537173
v -0.814896 3.955291 0.069399
v -0.115607 5.213155 -0.285043
v 0.073177 5.213155 -0.301693
v 0.235693 5.213155 -0.204199
v 0.309865 5.213155 -0.029800
v 0.267363 5.213155 0.154890
v 0.124420 5.213155 0.279324
v -0.064364 5.213155 0.295974
v -0.226880 5.213155 0.198480
v -0.301052 5.213155 0.024081
v -0.500560 -0.026993 -0.311464
v -0.467515 -0.026993 -0.329811
v -0.435103 -0.026993 -0.310367
v -0.435737 -0.026993 -0.272576
v -0.468782 -0.026993 -0.254228
v -0.501193 -0.026993 -0.273672
v 0.003217 1.141931 0.059724
v -0.052273 1.141931 0.036045
v -0.059511 1.141931 -0.023851
v -0.011259 1.141931 -0.060067
v 0.044231 1.141931 -0.036387
v 0.051469 1.141931 0.023508
v -0.016633 -0.026594 0.576431
v -0.051397 -0.026594 0.561596
v -0.055932 -0.026594 0.524072
v -0.025703 -0.026594 0.501383
v 0.009061 -0.026594 0.516218
v 0.013596 -0.026594 0.553742
v 0.049781 1.140810 -0.028329
v 0.049354 1.140810 0.032000
v -0.003106 1.140810 0.061796
v -0.055140 1.140810 0.031261
v -0.054713 1.140810 -0.029069
v -0.002252 1.140810 -0.058864
v 0.528101 -0.027714 -0.231807
v 0.527833 -0.027714 -0.194012
v 0.494967 -0.027714 -0.175345
v 0.462369 -0.027714 -0.194475
v 0.462636 -0.027714 -0.232271
v 0.495502 -0.027714 -0.250937
v -0.089610 0.988728 -0.043175
v -0.089610 1.188131 -0.043175
v -0.002443 0.988728 -0.091572
v -0.002443 1.188131 -0.091572
v 0.083054 0.988728 -0.040282
v 0.083054 1.188131 -0.040282
v 0.081384 0.988728 0.059405
v 0.081384 1.188131 0.059405
v -0.005783 0.988728 0.107803
v -0.005783 1.188131 0.107803
v -0.091280 0.988728 0.056513
v -0.091280 1.188131 0.056513
v -0.026879 2.558001 0.044805
v 0.051735 2.558001 0.031037
v -0.001011 2.558001 0.060323
v 0.025362 2.558001 0.045680
v -0.052747 2.558001 0.029287
v 0.052241 2.558001 0.000876
v 0.052746 2.558001 -0.029286
v -0.051736 2.558001 -0.031036
v -0.025363 2.558001 -0.045679
v -0.052747 1.862743 0.029287
v -0.052241 2.558001 -0.000875
v 0.001010 2.558001 -0.060322
v 0.026878 2.558001 -0.044804
v 0.052746 1.862743 -0.029286
vt 0.348239 0.897705
vt 0.641354 0.891344
vt 0.641354 0.897703
vt 0.348239 0.961293
vt 0.641354 0.954936
vt 0.641354 0.961295
vt 0.348239 0.948575
vt 0.641354 0.942218
vt 0.641354 0.948577
vt 0.348239 0.935858
vt 0.641354 0.929499
vt 0.641354 0.935858
vt 0.348239 0.923140
vt 0.641354 0.916781
vt 0.641354 0.923140
vt 0.000176 0.904061
vt 0.146743 0.910420
vt 0.000176 0.910420
vt 0.959323 0.007416
vt 0.956675 0.275618
vt 0.947690 0.002277
vt 0.280950 0.481915
vt 0.336415 0.573597
vt 0.075506 0.692167
vt 0.000176 0.424482
vt 0.003538 0.384673
vt 0.539511 0.590749
vt 0.571652 0.875528
vt 0.532753 0.884632
vt 0.563118 0.311211
vt 0.824027 0.192641
vt 0.844706 0.226823
vt 0.609566 0.509667
vt 0.618583 0.402893
vt 0.899357 0.460327
vt 0.289967 0.375141
vt 0.096575 0.163642
vt 0.122694 0.133413
vt 0.435176 0.615168
vt 0.293790 0.864451
vt 0.464357 0.269640
vt 0.605743 0.020357
vt 0.642564 0.035856
vt 0.802958 0.721166
vt 0.776839 0.751396
vt 0.869876 0.831781
vt 0.794156 0.825386
vt 0.360022 0.294059
vt 0.327881 0.009280
vt 0.366780 0.000176
vt 0.946538 0.287911
vt 0.948818 0.274302
vt 0.959463 0.283081
vt 0.899709 0.013715
vt 0.934226 0.280423
vt 0.926616 0.282784
vt 0.922920 0.003675
vt 0.941158 0.276494
vt 0.971749 0.010121
vt 0.963963 0.278838
vt 0.935147 0.000176
vt 0.911856 0.009947
vt 0.959601 0.859034
vt 0.947895 0.864006
vt 0.956859 0.591575
vt 0.948939 0.592453
vt 0.960059 0.584278
vt 0.899709 0.852167
vt 0.926669 0.584158
vt 0.934398 0.586092
vt 0.923192 0.861378
vt 0.941382 0.589929
vt 0.971897 0.855789
vt 0.964193 0.588460
vt 0.935255 0.865406
vt 0.912046 0.855254
vt 0.959524 0.570861
vt 0.947842 0.575887
vt 0.956814 0.303267
vt 0.948912 0.304281
vt 0.959887 0.295916
vt 0.899709 0.564166
vt 0.926659 0.295924
vt 0.934354 0.297992
vt 0.923111 0.573640
vt 0.941321 0.301859
vt 0.971864 0.567782
vt 0.964134 0.300118
vt 0.935228 0.577506
vt 0.911991 0.567468
vt 0.736283 0.963421
vt 0.715266 0.921387
vt 0.736283 0.921387
vt 0.715266 0.963421
vt 0.694249 0.921387
vt 0.694249 0.963421
vt 0.673232 0.921387
vt 0.673232 0.963421
vt 0.652215 0.921387
vt 0.652215 0.963421
vt 0.683740 0.981623
vt 0.778317 0.963421
vt 0.757300 0.921387
vt 0.778317 0.921387
vt 0.757300 0.963421
vt 0.673232 0.884985
vt 0.641706 0.903186
vt 0.348239 0.884987
vt 0.641354 0.884985
vt 0.000176 0.954933
vt 0.000176 0.948574
vt 0.146741 0.948574
vt 0.348239 0.910422
vt 0.641354 0.910421
vt 0.641354 0.904062
vt 0.054827 0.657986
vt 0.895995 0.500135
vt 0.256969 0.848953
vt 0.899357 0.761743
vt 0.841857 0.712062
vt 0.878678 0.727561
vt 0.773477 0.791204
vt 0.830977 0.840885
vt 0.895995 0.801551
vt 0.954395 0.289227
vt 0.943750 0.280448
vt 0.971749 0.280533
vt 0.955340 0.577858
vt 0.947420 0.578735
vt 0.944220 0.586033
vt 0.971897 0.586427
vt 0.955058 0.289579
vt 0.947155 0.290593
vt 0.944082 0.297944
vt 0.971864 0.298189
vt 0.673232 0.999824
vt 0.652215 0.999824
vt 0.641706 0.981623
vt 0.652215 0.884985
vt 0.683740 0.903186
vt 0.000176 0.942215
vt 0.000176 0.935856
vt 0.347886 0.935856
vt 0.347886 0.948574
vt 0.000176 0.929497
vt 0.000176 0.923138
vt 0.347886 0.923138
vt 0.000176 0.916779
vt 0.347886 0.910420
vt 0.000176 0.961292
vt 0.347886 0.961292
vt 0.000176 0.897702
vt 0.347886 0.897703
vt 0.000176 0.891344
vt 0.000176 0.884985
vt 0.347886 0.884985
vn -0.4854 0.0000 -0.8743
vn 0.5144 0.0000 -0.8575
vn 0.9999 0.0000 0.0168
vn 0.4854 0.0000 0.8743
vn -0.5144 0.0000 0.8575
vn -0.9999 0.0000 -0.0168
vn -0.5143 -0.0249 0.8573
vn 0.6117 0.3634 0.7027
vn 0.0818 0.3634 0.9280
vn 0.8573 0.3634 -0.3646
vn -0.6117 0.3634 -0.7027
vn -0.0818 0.3634 -0.9280
vn -0.4793 0.3634 0.7989
vn 0.9079 0.3634 0.2089
vn -0.9079 0.3634 -0.2089
vn 0.4793 0.3634 -0.7989
vn 0.0000 1.0000 0.0000
vn 0.0000 -1.0000 0.0000
vn -0.8573 0.3634 0.3646
vn -0.4513 0.3684 -0.8128
vn 0.9214 -0.3884 0.0154
vn -0.9321 0.3618 -0.0156
vn 0.4460 -0.3948 0.8033
vn 0.5144 -0.0085 -0.8575
vn -0.9891 0.0863 0.1195
vn 0.3627 -0.3820 -0.8500
vn 0.5617 0.3526 0.7484
vn -0.5677 -0.3248 -0.7564
vn -0.3584 0.4079 0.8398
vn 0.9914 -0.0531 -0.1198
vn 0.4927 0.0673 0.8676
vn -0.9258 -0.3778 -0.0066
vn 0.4714 0.3640 -0.8033
vn -0.4766 -0.3365 0.8122
vn 0.9148 0.4039 0.0065
vn -0.4936 -0.0340 -0.8690
vn -0.3583 0.4079 0.8398
usemtl Material.001
s off
f 2/1/1 83/2/1 82/3/1
f 4/4/2 87/5/2 86/6/2
f 6/7/3 80/8/3 81/9/3
f 8/10/4 78/11/4 76/12/4
f 10/13/5 75/14/5 77/15/5
f 85/16/6 84/17/6 79/18/6
f 11/19/7 37/20/7 9/21/7
f 19/22/8 18/23/8 28/24/8
f 19/22/9 29/25/9 30/26/9
f 16/27/10 26/28/10 27/29/10
f 13/30/11 20/31/11 24/32/11
f 15/33/12 14/34/12 24/35/12
f 21/36/13 30/37/13 31/38/13
f 18/23/14 17/39/14 27/40/14
f 23/41/15 32/42/15 20/43/15
f 16/27/16 15/33/16 25/44/16
f 26/45/17 30/46/17 28/47/17
f 21/36/18 14/34/18 16/27/18
f 22/48/19 31/49/19 32/50/19
f 34/51/18 36/52/18 38/53/18
f 1/54/20 34/55/20 33/56/20
f 5/57/21 36/52/21 35/58/21
f 1/59/22 38/60/22 11/19/22
f 9/21/23 36/52/23 7/61/23
f 3/62/24 35/58/24 34/55/24
f 44/63/25 43/64/25 49/65/25
f 48/66/17 50/67/17 49/65/17
f 39/68/26 45/69/26 46/70/26
f 41/71/27 47/72/27 48/66/27
f 39/73/28 44/63/28 50/74/28
f 43/64/29 42/75/29 48/66/29
f 40/76/30 46/70/30 47/72/30
f 56/77/31 55/78/31 61/79/31
f 60/80/17 62/81/17 61/79/17
f 51/82/32 57/83/32 58/84/32
f 53/85/33 59/86/33 60/80/33
f 51/87/34 56/77/34 62/88/34
f 55/78/35 54/89/35 60/80/35
f 52/90/36 58/84/36 59/86/36
f 64/91/1 65/92/1 63/93/1
f 66/94/2 67/95/2 65/92/2
f 68/96/3 69/97/3 67/95/3
f 70/98/4 71/99/4 69/97/4
f 72/100/17 70/98/17 68/101/17
f 72/102/5 73/103/5 71/104/5
f 74/105/6 63/93/6 73/103/6
f 65/106/18 69/97/18 73/107/18
f 2/1/1 4/108/1 86/109/1 83/2/1
f 87/110/2 81/111/2 88/112/2
f 6/7/3 8/10/3 76/12/3 80/8/3
f 8/10/4 10/13/4 77/15/4 78/11/4
f 10/13/5 12/113/5 79/114/5 75/14/5
f 12/113/6 2/1/6 82/3/6 85/115/6
f 11/19/7 38/60/7 37/20/7
f 19/22/8 28/24/8 29/116/8
f 19/22/9 30/26/9 21/36/9
f 16/27/10 27/29/10 17/39/10
f 13/30/11 24/32/11 14/34/11
f 15/33/12 24/35/12 25/117/12
f 21/36/13 31/38/13 22/48/13
f 18/23/14 27/40/14 28/118/14
f 23/41/15 20/43/15 13/30/15
f 16/27/16 25/44/16 26/45/16
f 32/119/17 24/120/17 20/121/17
f 24/120/17 26/45/17 25/44/17
f 26/45/17 28/47/17 27/122/17
f 28/47/17 30/46/17 29/123/17
f 30/46/17 32/119/17 31/124/17
f 32/119/17 30/46/17 24/120/17
f 24/120/17 30/46/17 26/45/17
f 14/34/18 23/41/18 13/30/18
f 23/41/18 21/36/18 22/48/18
f 21/36/18 18/23/18 19/22/18
f 18/23/18 16/27/18 17/39/18
f 16/27/18 14/34/18 15/33/18
f 14/34/18 21/36/18 23/41/18
f 21/36/18 16/27/18 18/23/18
f 22/48/19 32/50/19 23/41/19
f 38/53/18 33/125/18 34/51/18
f 34/51/18 35/126/18 36/52/18
f 36/52/18 37/20/18 38/53/18
f 1/54/20 3/62/20 34/55/20
f 5/57/21 7/61/21 36/52/21
f 1/59/22 33/127/22 38/60/22
f 9/21/23 37/20/23 36/52/23
f 3/62/24 5/57/24 35/58/24
f 44/63/25 49/65/25 50/74/25
f 50/67/17 48/66/17 45/128/17
f 45/128/17 48/66/17 46/129/17
f 46/129/17 48/66/17 47/130/17
f 39/68/26 46/70/26 40/76/26
f 41/71/27 48/66/27 42/75/27
f 39/73/28 50/74/28 45/131/28
f 43/64/37 48/66/37 49/65/37
f 40/76/30 47/72/30 41/71/30
f 56/77/31 61/79/31 62/88/31
f 62/81/17 60/80/17 57/132/17
f 57/132/17 60/80/17 58/133/17
f 58/133/17 60/80/17 59/134/17
f 51/82/32 58/84/32 52/90/32
f 53/85/33 60/80/33 54/89/33
f 51/87/34 62/88/34 57/135/34
f 55/78/35 60/80/35 61/79/35
f 52/90/36 59/86/36 53/85/36
f 64/91/1 66/94/1 65/92/1
f 66/94/2 68/96/2 67/95/2
f 68/96/3 70/98/3 69/97/3
f 70/98/4 72/100/4 71/99/4
f 68/101/17 66/136/17 72/100/17
f 66/136/17 64/137/17 72/100/17
f 64/137/17 74/138/17 72/100/17
f 72/102/5 74/105/5 73/103/5
f 74/105/6 64/91/6 63/93/6
f 73/107/18 63/139/18 65/106/18
f 65/106/18 67/140/18 69/97/18
f 69/97/18 71/99/18 73/107/18
f 80/141/3 76/142/3 7/143/3
f 81/111/3 80/141/3 7/143/3 5/144/3 88/112/3
f 78/145/4 77/146/4 9/147/4
f 76/142/4 78/145/4 9/147/4 7/143/4
f 75/148/5 79/18/5 84/17/5 11/149/5
f 77/146/5 75/148/5 11/149/5 9/147/5
f 86/150/2 87/110/2 5/144/2 3/151/2
f 85/16/6 82/152/6 1/153/6
f 84/17/6 85/16/6 1/153/6 11/149/6
f 83/154/1 86/155/1 3/156/1
f 82/152/1 83/154/1 3/156/1 1/153/1
f 87/110/2 88/112/2 5/144/2
f 4/4/2 6/7/2 81/9/2 87/5/2
f 12/113/6 85/115/6 79/114/6
